<svg xmlns="http://www.w3.org/2000/svg" width="100%" height="100%" viewBox="0 0 13 15" fill="none">
  <path d="M1.35581 14.3364C0.976937 14.3364 0.65625 14.2052 0.39375 13.9427C0.13125 13.6802 0 13.3595 0 12.9806V2.94225C0 2.56337 0.13125 2.24269 0.39375 1.98019C0.65625 1.71769 0.976937 1.58644 1.35581 1.58644H2.39419V0H3.54806V1.58644H9.23081V0H10.3558V1.58644H11.3942C11.7731 1.58644 12.0937 1.71769 12.3562 1.98019C12.6187 2.24269 12.75 2.56337 12.75 2.94225V12.9806C12.75 13.3595 12.6187 13.6802 12.3562 13.9427C12.0937 14.2052 11.7731 14.3364 11.3942 14.3364H1.35581ZM1.35581 13.2114H11.3942C11.4519 13.2114 11.5048 13.1874 11.5528 13.1393C11.6009 13.0913 11.625 13.0384 11.625 12.9806V5.94225H1.125V12.9806C1.125 13.0384 1.14906 13.0913 1.19719 13.1393C1.24519 13.1874 1.29806 13.2114 1.35581 13.2114ZM1.125 4.81725H11.625V2.94225C11.625 2.8845 11.6009 2.83162 11.5528 2.78362C11.5048 2.7355 11.4519 2.71144 11.3942 2.71144H1.35581C1.29806 2.71144 1.24519 2.7355 1.19719 2.78362C1.14906 2.83162 1.125 2.8845 1.125 2.94225V4.81725Z" fill="#57B190"/>
</svg>