<svg xmlns="http://www.w3.org/2000/svg" width="100%" height="100%" viewBox="0 0 15 16" fill="none">
  <path d="M0.75 4.35C0.75 3.08988 0.75 2.45982 0.995235 1.97852C1.21095 1.55516 1.55516 1.21095 1.97852 0.995235C2.45982 0.75 3.08988 0.75 4.35 0.75H10.65C11.9101 0.75 12.5402 0.75 13.0215 0.995235C13.4448 1.21095 13.789 1.55516 14.0048 1.97852C14.25 2.45982 14.25 3.08988 14.25 4.35V8.4C14.25 9.66012 14.25 10.2902 14.0048 10.7715C13.789 11.1948 13.4448 11.539 13.0215 11.7548C12.5402 12 11.9101 12 10.65 12H8.76281C8.29477 12 8.06075 12 7.83691 12.0459C7.63832 12.0867 7.44615 12.1541 7.26561 12.2463C7.06213 12.3503 6.87939 12.4965 6.51391 12.7889L4.72482 14.2201C4.41275 14.4698 4.25672 14.5946 4.1254 14.5948C4.0112 14.5949 3.90317 14.543 3.83192 14.4537C3.75 14.3511 3.75 14.1513 3.75 13.7516V12C3.05252 12 2.70378 12 2.41766 11.9233C1.6412 11.7153 1.03472 11.1088 0.826667 10.3323C0.75 10.0462 0.75 9.69748 0.75 9V4.35Z" stroke="#868B94" stroke-width="1.5" stroke-linecap="round" stroke-linejoin="round"/>
</svg>