<svg xmlns="http://www.w3.org/2000/svg" width="100%" height="100%" viewBox="0 0 25 25" fill="none">
  <path d="M19.875 3.5H4.875C4.47718 3.5 4.09564 3.65804 3.81434 3.93934C3.53304 4.22064 3.375 4.60218 3.375 5V20C3.375 20.3978 3.53304 20.7794 3.81434 21.0607C4.09564 21.342 4.47718 21.5 4.875 21.5H19.875C20.2728 21.5 20.6544 21.342 20.9357 21.0607C21.217 20.7794 21.375 20.3978 21.375 20V5C21.375 4.60218 21.217 4.22064 20.9357 3.93934C20.6544 3.65804 20.2728 3.5 19.875 3.5ZM7.875 20H4.875V5H7.875V20ZM16.875 14.75H10.875C10.6761 14.75 10.4853 14.671 10.3447 14.5303C10.204 14.3897 10.125 14.1989 10.125 14C10.125 13.8011 10.204 13.6103 10.3447 13.4697C10.4853 13.329 10.6761 13.25 10.875 13.25H16.875C17.0739 13.25 17.2647 13.329 17.4053 13.4697C17.546 13.6103 17.625 13.8011 17.625 14C17.625 14.1989 17.546 14.3897 17.4053 14.5303C17.2647 14.671 17.0739 14.75 16.875 14.75ZM16.875 11.75H10.875C10.6761 11.75 10.4853 11.671 10.3447 11.5303C10.204 11.3897 10.125 11.1989 10.125 11C10.125 10.8011 10.204 10.6103 10.3447 10.4697C10.4853 10.329 10.6761 10.25 10.875 10.25H16.875C17.0739 10.25 17.2647 10.329 17.4053 10.4697C17.546 10.6103 17.625 10.8011 17.625 11C17.625 11.1989 17.546 11.3897 17.4053 11.5303C17.2647 11.671 17.0739 11.75 16.875 11.75Z" fill="#D1D3D8"/>
</svg>