<svg width="100%" height="100%" viewBox="0 0 25 25" fill="none" xmlns="http://www.w3.org/2000/svg">
<path d="M12.6934 2.92627C12.8743 2.90264 13.0589 2.91499 13.2363 2.9624C13.5461 3.04528 13.7979 3.25767 13.9072 3.34131L20.665 8.50928C21.0847 8.83017 21.438 9.09016 21.6963 9.43506C21.9095 9.71998 22.0692 10.0428 22.166 10.3853C22.2831 10.7999 22.2754 11.2379 22.2754 11.7661V17.9849C22.2754 18.5298 22.276 18.993 22.2451 19.3716C22.2133 19.7606 22.1433 20.1396 21.959 20.5015C21.681 21.047 21.237 21.491 20.6914 21.769C20.3296 21.9534 19.9505 22.0234 19.5615 22.0552C19.183 22.0861 18.7197 22.0854 18.1748 22.0854H14.375V16.4146C14.375 15.5861 13.7034 14.9146 12.875 14.9146C12.0466 14.9146 11.375 15.5861 11.375 16.4146V22.0854H7.5752C7.03031 22.0854 6.56701 22.0861 6.18848 22.0552C5.79945 22.0234 5.42041 21.9533 5.05859 21.769C4.51296 21.491 4.06905 21.0471 3.79102 20.5015C3.60667 20.1396 3.53668 19.7607 3.50488 19.3716C3.47398 18.993 3.47461 18.5298 3.47461 17.9849V11.3862C3.47792 11.0206 3.49617 10.6964 3.58398 10.3853C3.68077 10.0428 3.84045 9.71997 4.05371 9.43506C4.31198 9.09028 4.66446 8.83008 5.08398 8.50928L11.8428 3.34131C11.9522 3.25752 12.204 3.04517 12.5137 2.9624L12.6934 2.92627Z" fill="#D1D3D8"/>
</svg>
