<svg xmlns="http://www.w3.org/2000/svg" width="100%" height="100%" viewBox="0 0 18 18" fill="none">
    <path d="M8.66231 9.02394C9.03544 9.02394 9.35444 8.89106 9.61931 8.62531C9.88431 8.35956 10.0168 8.04012 10.0168 7.667C10.0168 7.29387 9.88394 6.97481 9.61819 6.70981C9.35244 6.44494 9.03294 6.3125 8.65969 6.3125C8.28656 6.3125 7.96756 6.44538 7.70269 6.71113C7.43769 6.97688 7.30519 7.29638 7.30519 7.66963C7.30519 8.04275 7.43806 8.36175 7.70381 8.62663C7.96956 8.8915 8.28906 9.02394 8.66231 9.02394ZM8.661 14.7601C10.1282 13.4466 11.2511 12.1868 12.0294 10.9805C12.8078 9.77425 13.197 8.71775 13.197 7.811C13.197 6.44375 12.7626 5.31975 11.8939 4.439C11.0251 3.55825 9.9475 3.11787 8.661 3.11787C7.3745 3.11787 6.29687 3.55825 5.42812 4.439C4.55937 5.31975 4.125 6.44375 4.125 7.811C4.125 8.71775 4.51419 9.77425 5.29256 10.9805C6.07094 12.1868 7.19375 13.4466 8.661 14.7601ZM8.661 16.2571C6.7735 14.6216 5.35812 13.0996 4.41487 11.6909C3.47162 10.2822 3 8.98887 3 7.811C3 6.08025 3.55981 4.67906 4.67944 3.60744C5.79919 2.53581 7.12637 2 8.661 2C10.1956 2 11.5228 2.53581 12.6426 3.60744C13.7622 4.67906 14.322 6.08025 14.322 7.811C14.322 8.98887 13.8504 10.2822 12.9071 11.6909C11.9639 13.0996 10.5485 14.6216 8.661 16.2571Z" fill="#57B190"/>
</svg>