<svg width="80" height="23" viewBox="0 0 80 23" fill="none" xmlns="http://www.w3.org/2000/svg">
<path d="M16.5399 4.29801C16.7442 4.29801 17.0473 4.52908 17.1248 5.01612C17.1494 5.09433 17.1494 5.11921 17.1494 5.1441C17.1494 5.42494 16.9451 5.80888 16.4659 5.96175C15.148 6.34569 13.5483 6.65142 11.8464 6.75452C11.8464 6.83273 11.8217 7.11357 11.8217 7.24155C11.7971 7.83168 11.7724 8.72755 11.7724 9.57008L13.8267 9.46699C16.642 9.28924 19.2072 9.13282 20.7541 9.13282C21.1593 9.13282 21.4659 9.49187 21.4659 9.87581C21.4659 10.3095 21.1628 10.7219 20.7541 10.7219C16.5434 10.7219 5.32771 11.7209 0.71177 12.2577C0.306555 12.2328 0 11.9235 0 11.4898C0 11.0561 0.33122 10.7219 0.761101 10.6721C2.86822 10.4162 6.46936 10.0571 10.074 9.75139C10.074 8.67778 10.074 7.67882 10.1762 6.78296H9.6688C9.56662 6.78296 9.33758 6.75807 9.23892 6.75807C5.73645 6.32436 4.36576 4.07049 4.24243 0.742997C4.24243 0.309286 4.67232 0.0248851 5.10572 0C5.40875 0 6.01834 0.231076 6.01834 0.590131C6.01834 1.5642 6.14519 2.40674 6.50107 3.27772C7.28684 5.17254 9.26711 5.22231 11.0183 5.22231C12.463 5.22231 14.6195 4.99123 16.3214 4.35133C16.3989 4.32645 16.4976 4.30156 16.5504 4.30156L16.5399 4.29801ZM5.34885 14.7426C8.13955 14.2556 12.7062 13.8468 16.2333 13.7188C16.79 13.7188 16.9697 14.1525 16.9944 14.6146C16.7654 16.8401 16.6914 19.0691 16.6914 21.195C16.6914 21.6038 16.2333 21.9131 15.7788 21.9131C15.3735 21.9131 14.993 21.6073 14.993 21.1701C14.993 19.3535 14.993 17.5084 15.1974 15.3576C11.6209 15.5105 8.06908 15.8944 5.45456 16.3033C5.07401 16.2784 4.74279 15.9975 4.74279 15.6136C4.74279 15.1799 5.02115 14.8208 5.35237 14.7426H5.34885Z" fill="#B5FF61"/>
<path d="M23.4443 0.148003C23.7934 0.148003 24.0815 0.259448 24.3086 0.482339C24.5399 0.70523 24.6555 1.02905 24.6555 1.45381C24.6555 1.77343 24.584 2.10566 24.441 2.45051C24.3022 2.79115 24.1172 3.10657 23.8859 3.39675C23.6546 3.68272 23.4044 3.94556 23.1352 4.18528C22.8661 4.42499 22.5906 4.62895 22.3088 4.79717L21.6843 4.04019C21.9703 3.81729 22.2563 3.55655 22.5422 3.25796C22.8324 2.95517 23.0469 2.66709 23.1857 2.39374C22.8871 2.35589 22.6453 2.24234 22.4602 2.05309C22.2794 1.85964 22.189 1.61151 22.189 1.30872C22.189 0.963868 22.3067 0.684203 22.5422 0.469723C22.782 0.255243 23.0827 0.148003 23.4443 0.148003Z" fill="#B5FF61"/>
<path d="M77.9266 21.3689L74.589 17.6309L73.3875 18.9125V21.3689H71.821V8.24136H73.3875V16.7943L77.8287 12.0773H79.8757L75.7015 16.465L80.0003 21.3689H77.9266Z" fill="white"/>
<path d="M66.298 21.6227C65.3724 21.6227 64.5298 21.412 63.7703 20.9908C63.0108 20.5636 62.4145 19.9791 61.9814 19.2375C61.5542 18.4899 61.3406 17.6622 61.3406 16.7544C61.3406 15.8466 61.5542 15.0218 61.9814 14.2802C62.4145 13.5326 63.0108 12.9481 63.7703 12.5269C64.5298 12.0997 65.3724 11.8861 66.298 11.8861C67.2117 11.8861 68.0424 12.0967 68.79 12.518C69.5376 12.9333 70.1221 13.4999 70.5434 14.2179L69.1816 15.0367C68.8968 14.5323 68.4993 14.1348 67.989 13.8441C67.4787 13.5474 66.915 13.3991 66.298 13.3991C65.3427 13.3991 64.5476 13.7195 63.9127 14.3603C63.2778 15.0011 62.9604 15.7991 62.9604 16.7544C62.9604 17.7096 63.2778 18.5077 63.9127 19.1485C64.5476 19.7893 65.3427 20.1097 66.298 20.1097C66.915 20.1097 67.4787 19.9613 67.989 19.6647C68.4993 19.368 68.8968 18.9675 69.1816 18.4632L70.5434 19.282C70.1221 20.0058 69.5347 20.5784 68.7811 20.9997C68.0335 21.415 67.2058 21.6227 66.298 21.6227Z" fill="white"/>
<path d="M55.3605 21.6227C54.4349 21.6227 53.5923 21.412 52.8328 20.9908C52.0733 20.5636 51.477 19.9791 51.0439 19.2375C50.6167 18.4899 50.4031 17.6622 50.4031 16.7544C50.4031 15.8466 50.6167 15.0218 51.0439 14.2802C51.477 13.5326 52.0733 12.9481 52.8328 12.5269C53.5923 12.0997 54.4349 11.8861 55.3605 11.8861C56.7608 11.8861 57.9326 12.3518 58.876 13.2834C59.8254 14.2149 60.3001 15.3719 60.3001 16.7544C60.3001 18.1368 59.8254 19.2938 58.876 20.2254C57.9326 21.1569 56.7608 21.6227 55.3605 21.6227ZM55.3605 20.1097C56.3098 20.1097 57.099 19.7893 57.7279 19.1485C58.3628 18.5077 58.6802 17.7096 58.6802 16.7544C58.6802 15.7991 58.3628 15.0011 57.7279 14.3603C57.099 13.7195 56.3098 13.3991 55.3605 13.3991C54.4052 13.3991 53.6101 13.7195 52.9752 14.3603C52.3403 15.0011 52.0229 15.7991 52.0229 16.7544C52.0229 17.7096 52.3403 18.5077 52.9752 19.1485C53.6101 19.7893 54.4052 20.1097 55.3605 20.1097Z" fill="white"/>
<path d="M45.7488 11.9419C46.8821 11.9419 47.7929 12.286 48.4812 12.9743C49.1754 13.6625 49.5225 14.5763 49.5225 15.7155V21.456H47.9561V16.205C47.9561 15.3743 47.7098 14.7098 47.2174 14.2114C46.7249 13.707 46.0663 13.4549 45.2415 13.4549C44.3812 13.4549 43.6929 13.71 43.1767 14.2203C42.6605 14.7305 42.4024 15.404 42.4024 16.2406V21.456H40.8359V12.1644H42.4024V13.5795C43.1559 12.4877 44.2714 11.9419 45.7488 11.9419Z" fill="white"/>
<path d="M32.5658 5.34757C31.3991 8.67611 30.7552 11.1686 30.7102 13.5924C30.7039 13.9283 30.7104 14.2642 30.7276 14.6022C31.25 14.1136 33.044 12.4297 34.103 11.3501L37.3028 8.08825L39.4568 8.42453L33.5115 14.5474L36.5817 17.4375L39.8984 20.3471L37.4721 21.0002L32.3809 15.6955L31.06 17.0639C31.3536 18.4284 31.8378 19.8919 32.5454 21.5631L30.898 22.2604C29.5009 18.9605 28.8712 16.2934 28.922 13.559C28.9726 10.8417 29.6949 8.12992 30.8776 4.75556L32.5658 5.34757Z" fill="white"/>
</svg>
