<svg xmlns="http://www.w3.org/2000/svg" width="100%" height="100%" viewBox="0 0 25 25" fill="currentColor">
  <path d="M17.4232 22.1992C17.9879 22.1055 18.5726 22.0358 19.1249 21.8856C20.5601 21.4953 21.5563 20.1613 20.9017 18.7472C20.4242 17.7159 19.7245 16.7789 18.8423 15.9896C17.9602 15.2003 16.9129 14.5742 15.7603 14.147C14.6077 13.7199 13.3724 13.5 12.1248 13.5C10.8772 13.5 9.6419 13.7199 8.48931 14.147C7.33671 14.5742 6.28944 15.2003 5.40728 15.9896C4.52513 16.7789 3.82536 17.7159 3.34794 18.7472C2.69323 20.1614 3.68968 21.4954 5.12503 21.8857C5.67716 22.0358 6.26161 22.1054 6.82606 22.1991C7.66631 22.3385 9.25828 22.5 12.125 22.5C14.9912 22.5 16.583 22.3386 17.4232 22.1992Z" />
  <circle cx="4.5" cy="4.5" r="4.5" transform="matrix(-1 0 0 1 16.625 3.23706)" fill="currentColor"/>
</svg>