<svg
  xmlns="http://www.w3.org/2000/svg"
  width="100%"
  height="100%"
  viewBox="0 0 47 54"
  fill="none"
>
  <path
    d="M27 24.5H12M17 34.5H12M32 14.5H12M42 27V14C42 9.79961 42 7.69941 41.1825 6.09507C40.4635 4.68386 39.3161 3.5365 37.9049 2.81745C36.3006 2 34.2004 2 30 2H14C9.79961 2 7.69941 2 6.09507 2.81745C4.68386 3.5365 3.5365 4.68386 2.81745 6.09507C2 7.69941 2 9.79961 2 14V40C2 44.2004 2 46.3006 2.81745 47.9049C3.5365 49.3161 4.68386 50.4635 6.09507 51.1825C7.69941 52 9.79961 52 14 52H22M32 37L44.5 49.5M44.5 37L32 49.5"
    stroke="#DCDEE3"
    stroke-width="4"
    stroke-linecap="round"
    stroke-linejoin="round"
  />
</svg>
