<svg width="117" height="95" viewBox="0 0 117 95" fill="none" xmlns="http://www.w3.org/2000/svg">
<path d="M63.5 27.5H48.5M53.5 37.5H48.5M68.5 17.5H48.5M78.5 30V17C78.5 12.7996 78.5 10.6994 77.6825 9.09507C76.9635 7.68386 75.8161 6.5365 74.4049 5.81745C72.8006 5 70.7004 5 66.5 5H50.5C46.2996 5 44.1994 5 42.5951 5.81745C41.1839 6.5365 40.0365 7.68386 39.3175 9.09507C38.5 10.6994 38.5 12.7996 38.5 17V43C38.5 47.2004 38.5 49.3006 39.3175 50.9049C40.0365 52.3161 41.1839 53.4635 42.5951 54.1825C44.1994 55 46.2996 55 50.5 55H58.5M68.5 40L81 52.5M81 40L68.5 52.5" stroke="#DCDEE3" stroke-width="4" stroke-linecap="round" stroke-linejoin="round"/>
<path d="M13.2367 78.87C15.2167 78.87 16.6267 80.685 16.6267 83.535C16.6267 86.415 15.2167 88.23 13.2367 88.23C11.2567 88.23 9.84674 86.415 9.84674 83.535C9.84674 80.685 11.2567 78.87 13.2367 78.87ZM11.2567 83.535C11.2567 85.62 12.0667 86.895 13.2367 86.895C14.4217 86.895 15.2167 85.62 15.2167 83.535C15.2167 81.465 14.4217 80.205 13.2367 80.205C12.0667 80.205 11.2567 81.465 11.2567 83.535ZM18.5017 91.17V77.895H19.9867V83.085H22.0567V84.315H19.9867V91.17H18.5017ZM32.2421 77.895H33.7271V85.905H32.2421V77.895ZM22.9271 84.48C24.9971 83.76 26.1971 82.035 26.1971 80.235V79.95H23.3171V78.765H30.5621V79.95H27.6971V80.235C27.6971 81.945 28.9421 83.565 30.9671 84.24L30.2171 85.38C28.7021 84.885 27.5771 83.85 26.9771 82.515C26.3921 83.94 25.2521 85.08 23.6771 85.62L22.9271 84.48ZM24.8021 87.765V86.58H33.7271V91.17H32.2421V87.765H24.8021ZM40.8895 78.435H49.8895V79.335C49.8895 80.19 49.8895 81.315 49.6195 82.74H51.4045V83.925H39.3745V82.74H48.1495C48.4195 81.435 48.4495 80.445 48.4495 79.635H40.8895V78.435ZM40.7545 86.235V85.08H49.9195V88.59H42.2545V89.88H50.2495V91.05H40.7995V87.48H48.4495V86.235H40.7545ZM61.9048 77.88H63.3898V91.185H61.9048V77.88ZM52.9198 83.535C52.9198 80.685 54.3448 78.87 56.3398 78.87C58.3198 78.87 59.7448 80.685 59.7448 83.535C59.7448 86.415 58.3198 88.23 56.3398 88.23C54.3448 88.23 52.9198 86.415 52.9198 83.535ZM54.3448 83.535C54.3448 85.62 55.1548 86.895 56.3398 86.895C57.5098 86.895 58.3348 85.62 58.3348 83.535C58.3348 81.465 57.5098 80.205 56.3398 80.205C55.1548 80.205 54.3448 81.465 54.3448 83.535ZM70.5522 85.68H71.9322V87.195H73.8672V85.68H75.2472V91.005H70.5522V85.68ZM69.2472 81.525C69.2472 79.695 70.7022 78.45 72.6972 78.45C74.4522 78.45 75.8022 79.425 76.0872 80.91H78.5772V77.895H80.0472V84.915H78.5772V82.11H76.0872C75.8172 83.61 74.4522 84.615 72.6972 84.615C70.7022 84.615 69.2472 83.34 69.2472 81.525ZM70.6722 81.525C70.6722 82.65 71.5122 83.4 72.6972 83.4C73.8822 83.4 74.7372 82.65 74.7372 81.525C74.7372 80.415 73.8822 79.665 72.6972 79.665C71.5122 79.665 70.6722 80.415 70.6722 81.525ZM71.9322 89.88H73.8672V88.29H71.9322V89.88ZM75.2772 90.015C76.8522 89.355 77.6172 87.96 77.6172 86.655V85.59H79.0572V86.655C79.0572 88.05 79.8222 89.43 81.4272 90.015L80.6922 91.125C79.5222 90.66 78.7572 89.82 78.3372 88.785C77.9022 89.805 77.1222 90.66 75.9972 91.125L75.2772 90.015ZM85.7176 78.87C87.5176 78.87 88.8376 80.4 89.0476 82.845H91.6876V77.88H93.1576V91.185H91.6876V84.03H89.0626C88.9126 86.625 87.5626 88.23 85.7176 88.23C83.7826 88.23 82.3726 86.415 82.3726 83.535C82.3726 80.685 83.7826 78.87 85.7176 78.87ZM83.7676 83.535C83.7676 85.62 84.5776 86.895 85.7176 86.895C86.9026 86.895 87.6826 85.62 87.6826 83.535C87.6826 81.465 86.9026 80.205 85.7176 80.205C84.5776 80.205 83.7676 81.465 83.7676 83.535ZM95.2729 88.32H98.1079V84.855C97.0429 84.255 96.3979 83.295 96.3979 82.125C96.3979 80.01 98.4529 78.645 101.273 78.645C104.108 78.645 106.148 80.01 106.148 82.125C106.148 83.295 105.518 84.24 104.453 84.855V88.32H107.303V89.52H95.2729V88.32ZM97.8379 82.125C97.8379 83.55 99.2479 84.435 101.273 84.435C103.283 84.435 104.708 83.55 104.708 82.125C104.708 80.7 103.283 79.815 101.273 79.815C99.2479 79.815 97.8379 80.7 97.8379 82.125ZM99.5779 88.32H102.983V85.41C102.458 85.53 101.888 85.59 101.273 85.59C100.673 85.59 100.103 85.53 99.5779 85.41V88.32Z" fill="#D1D3D8"/>
</svg>
