<svg xmlns="http://www.w3.org/2000/svg" width="100%" height="100%" viewBox="0 0 16 12" fill="none">
  <path d="M8.00019 9.49031C8.15969 9.49031 8.29325 9.43637 8.40088 9.3285C8.50863 9.22075 8.5625 9.08713 8.5625 8.92763C8.5625 8.76813 8.50856 8.63456 8.40069 8.52694C8.29281 8.41919 8.15919 8.36531 7.99981 8.36531C7.84031 8.36531 7.70675 8.41925 7.59912 8.52713C7.49137 8.635 7.4375 8.76869 7.4375 8.92819C7.4375 9.08756 7.49144 9.22113 7.59931 9.32888C7.70719 9.4365 7.84081 9.49031 8.00019 9.49031ZM8.00019 6.5625C8.15969 6.5625 8.29325 6.50856 8.40088 6.40069C8.50863 6.29281 8.5625 6.15919 8.5625 5.99981C8.5625 5.84031 8.50856 5.70675 8.40069 5.59912C8.29281 5.49137 8.15919 5.4375 7.99981 5.4375C7.84031 5.4375 7.70675 5.49144 7.59912 5.59931C7.49137 5.70719 7.4375 5.84081 7.4375 6.00019C7.4375 6.15969 7.49144 6.29325 7.59931 6.40088C7.70719 6.50863 7.84081 6.5625 8.00019 6.5625ZM8.00019 3.63469C8.15969 3.63469 8.29325 3.58075 8.40088 3.47287C8.50863 3.365 8.5625 3.23131 8.5625 3.07181C8.5625 2.91244 8.50856 2.77888 8.40069 2.67113C8.29281 2.5635 8.15919 2.50969 7.99981 2.50969C7.84031 2.50969 7.70675 2.56362 7.59912 2.6715C7.49137 2.77925 7.4375 2.91287 7.4375 3.07237C7.4375 3.23187 7.49144 3.36544 7.59931 3.47306C7.70719 3.58081 7.84081 3.63469 8.00019 3.63469ZM13.7692 11.625H2.23081C1.85794 11.625 1.53875 11.4923 1.27325 11.2268C1.00775 10.9613 0.875 10.6421 0.875 10.2692V7.803C1.302 7.72125 1.65875 7.51181 1.94525 7.17469C2.23175 6.83769 2.375 6.44613 2.375 6C2.375 5.55387 2.23175 5.16231 1.94525 4.82531C1.65875 4.48819 1.302 4.27875 0.875 4.197V1.73081C0.875 1.35794 1.00775 1.03875 1.27325 0.77325C1.53875 0.50775 1.85794 0.375 2.23081 0.375H13.7692C14.1421 0.375 14.4613 0.50775 14.7267 0.77325C14.9922 1.03875 15.125 1.35794 15.125 1.73081V4.197C14.698 4.27875 14.3413 4.48819 14.0548 4.82531C13.7682 5.16231 13.625 5.55387 13.625 6C13.625 6.44613 13.7682 6.83769 14.0548 7.17469C14.3413 7.51181 14.698 7.72125 15.125 7.803V10.2692C15.125 10.6421 14.9922 10.9613 14.7267 11.2268C14.4613 11.4923 14.1421 11.625 13.7692 11.625ZM13.7692 10.5C13.8366 10.5 13.8919 10.4784 13.9351 10.4351C13.9784 10.3919 14 10.3366 14 10.2692V8.5875C13.5375 8.3125 13.1719 7.94688 12.9031 7.49063C12.6344 7.03438 12.5 6.5375 12.5 6C12.5 5.4625 12.6344 4.96563 12.9031 4.50938C13.1719 4.05313 13.5375 3.6875 14 3.4125V1.73081C14 1.66344 13.9784 1.60813 13.9351 1.56488C13.8919 1.52163 13.8366 1.5 13.7692 1.5H2.23081C2.16344 1.5 2.10813 1.52163 2.06488 1.56488C2.02163 1.60813 2 1.66344 2 1.73081V3.4125C2.4625 3.6875 2.82813 4.05313 3.09688 4.50938C3.36563 4.96563 3.5 5.4625 3.5 6C3.5 6.5375 3.36563 7.03438 3.09688 7.49063C2.82813 7.94688 2.4625 8.3125 2 8.5875V10.2692C2 10.3366 2.02163 10.3919 2.06488 10.4351C2.10813 10.4784 2.16344 10.5 2.23081 10.5H13.7692Z" fill="#57B190"/>
</svg>